<svg version="1.1" id="Layer_1" xmlns="http://www.w3.org/2000/svg" xmlns:xlink="http://www.w3.org/1999/xlink" x="0px" y="0px"
	 width="100%" viewBox="0 0 413 292" enable-background="new 0 0 413 292" xml:space="preserve">
<path fill="#000000" opacity="1.000000" stroke="none" 
	d="
M305.000000,293.000000 
	C203.333374,293.000000 102.166740,293.000000 1.000082,293.000000 
	C1.000054,195.666733 1.000054,98.333473 1.000027,1.000160 
	C138.666550,1.000107 276.333099,1.000107 413.999725,1.000053 
	C413.999817,98.333183 413.999817,195.666367 413.999908,292.999756 
	C377.833344,293.000000 341.666656,293.000000 305.000000,293.000000 
M63.991413,140.824219 
	C63.959751,144.899628 63.928089,148.975037 63.984566,153.875626 
	C64.203949,155.324997 64.255333,156.824280 64.668747,158.216019 
	C68.764496,172.004120 77.742218,181.268814 91.592468,184.802658 
	C98.256569,186.502975 101.902870,190.091705 105.102928,195.791794 
	C111.842049,207.795746 120.807732,218.109436 132.184998,225.983994 
	C150.797913,238.866592 171.289780,245.687485 194.183380,243.976547 
	C197.041122,243.762970 198.646896,244.503418 200.363708,247.263397 
	C202.367523,250.484787 205.633469,253.232101 208.913132,255.290848 
	C218.956009,261.595093 233.911453,260.827942 244.166702,248.376770 
	C248.230453,243.442856 249.165604,237.098038 246.292725,232.018707 
	C241.261948,223.124176 233.105377,218.153885 222.931412,218.160614 
	C213.352661,218.166946 205.188049,221.995193 199.746353,230.528900 
	C198.978317,231.733368 197.006042,232.948074 195.658859,232.876877 
	C187.787933,232.460907 179.871231,232.094345 172.093353,230.904602 
	C155.944290,228.434402 142.316528,220.602097 130.318878,209.789978 
	C120.249977,200.716019 112.973373,189.560394 108.588554,176.892273 
	C103.750580,162.914917 100.833694,148.500916 103.987595,133.515442 
	C109.077408,109.331612 120.477386,89.305527 141.760239,75.781013 
	C154.048767,67.972084 167.256378,62.652557 182.923965,61.973610 
	C192.284164,61.926701 201.644379,61.879787 211.723450,62.334286 
	C211.777557,66.542282 211.831650,70.750275 211.434280,75.022537 
	C211.434280,75.022537 211.002365,75.168861 210.247498,75.033028 
	C204.042068,76.422867 199.536179,80.104652 195.876678,85.194916 
	C194.695114,86.838455 192.649582,87.860870 190.071121,89.029373 
	C186.572418,89.019882 183.068924,89.126114 179.575775,88.981972 
	C158.101837,88.095856 142.274216,98.369301 130.590424,115.155273 
	C116.632256,135.208832 117.349655,160.214630 130.582886,179.786606 
	C142.250977,197.043732 159.327942,205.787369 180.308838,205.953323 
	C204.965851,206.148361 229.625763,206.053986 254.284103,205.981644 
	C274.132385,205.923416 290.622559,198.578308 302.778259,182.635498 
	C310.487091,172.525024 314.721252,161.063461 315.029327,148.199524 
	C315.361389,134.334320 310.837891,121.928909 302.473419,111.348183 
	C295.330872,102.313110 286.334442,95.452850 274.799835,91.648811 
	C265.128265,88.459198 255.569153,89.344765 245.910309,89.061287 
	C243.385498,88.987175 241.801056,88.539421 240.383484,86.074577 
	C236.989151,80.172562 231.922958,76.198296 225.020233,74.861008 
	C224.522949,74.764664 224.223419,73.647591 223.970657,72.099129 
	C224.015839,68.749031 224.061020,65.398941 225.029419,62.008244 
	C234.354950,61.949657 243.680466,61.891068 253.879135,61.967449 
	C261.460693,63.649391 269.323517,64.555023 276.563995,67.178314 
	C290.710724,72.303833 303.307617,80.309792 312.616852,92.353172 
	C324.991394,108.362160 332.352509,126.385353 332.027954,147.924744 
	C332.018768,159.455780 331.996277,170.986847 332.012665,182.517853 
	C332.015594,184.591568 331.544281,187.106674 335.810028,186.941879 
	C336.729858,186.634903 337.630463,186.149429 338.572418,186.048004 
	C350.551727,184.758118 359.009827,177.921707 366.050049,168.776886 
	C375.594757,156.378891 374.156982,132.925186 362.452850,120.992775 
	C357.629578,116.075409 352.486877,111.518463 344.958221,109.528908 
	C341.652679,108.981735 338.347107,108.434563 334.981750,107.162178 
	C331.135529,101.433807 327.278412,95.712700 323.447662,89.974014 
	C321.502563,87.060135 320.038086,83.673836 317.596588,81.274109 
	C312.334351,76.101913 306.992767,70.831032 300.947021,66.671043 
	C286.152008,56.490814 269.456970,51.162960 251.570984,50.094360 
	C242.448181,49.549316 233.267639,49.971302 224.019867,49.044224 
	C223.957230,45.361164 223.894592,41.678104 223.985046,37.290363 
	C224.875244,36.435829 225.684921,35.472672 226.668259,34.743778 
	C235.219299,28.405386 235.163803,17.935806 226.942444,11.244050 
	C223.661148,8.573236 220.604141,8.701632 216.729553,8.805644 
	C207.272446,9.059514 203.448532,12.741189 202.846375,22.005016 
	C202.436356,28.312933 206.003616,31.697565 209.863037,35.352158 
	C210.707535,36.151840 211.836517,37.191586 211.899399,38.180248 
	C212.139023,41.947033 211.996094,45.738159 211.996094,50.000870 
	C207.099777,50.000870 202.643539,49.795444 198.212662,50.043221 
	C188.703766,50.574955 179.069580,50.546669 169.735214,52.173561 
	C149.553055,55.691120 132.659561,65.611259 118.340996,81.169754 
	C114.949738,85.447098 111.558487,89.724449 107.855431,94.631844 
	C105.826897,97.963821 103.986549,101.433838 101.687859,104.567650 
	C100.591942,106.061714 98.759262,107.616577 97.030495,107.949097 
	C84.384636,110.381462 74.846062,117.093315 67.833664,128.665512 
	C66.611259,132.443115 65.388855,136.220734 63.991413,140.824219 
z"/>
<path fill="#ED5F1E" opacity="1.000000" stroke="none" 
	d="
M224.113190,49.956184 
	C233.267639,49.971302 242.448181,49.549316 251.570984,50.094360 
	C269.456970,51.162960 286.152008,56.490814 300.947021,66.671043 
	C306.992767,70.831032 312.334351,76.101913 317.596588,81.274109 
	C320.038086,83.673836 321.502563,87.060135 323.447662,89.974014 
	C327.278412,95.712700 331.135529,101.433807 335.123047,107.874756 
	C338.201752,111.960365 341.601166,112.289391 345.379395,110.122513 
	C352.486877,111.518463 357.629578,116.075409 362.452850,120.992775 
	C374.156982,132.925186 375.594757,156.378891 366.050049,168.776886 
	C359.009827,177.921707 350.551727,184.758118 338.572418,186.048004 
	C337.630463,186.149429 336.729858,186.634903 335.405731,186.430038 
	C334.999634,174.787018 335.127228,163.652847 334.869171,152.527618 
	C334.825928,150.663910 333.110748,148.838974 332.168091,146.996124 
	C332.352509,126.385353 324.991394,108.362160 312.616852,92.353172 
	C303.307617,80.309792 290.710724,72.303833 276.563995,67.178314 
	C269.323517,64.555023 261.460693,63.649391 253.345108,61.538414 
	C251.611557,60.419334 250.426086,59.162109 249.210205,59.131985 
	C241.728348,58.946598 234.237473,58.947639 226.755264,59.125862 
	C225.488953,59.156029 224.250244,60.345409 222.682663,61.205681 
	C219.916321,66.554893 220.434143,70.651436 223.831940,73.005112 
	C224.223419,73.647591 224.522949,74.764664 225.020233,74.861008 
	C231.922958,76.198296 236.989151,80.172562 240.383484,86.074577 
	C241.801056,88.539421 243.385498,88.987175 245.910309,89.061287 
	C255.569153,89.344765 265.128265,88.459198 274.799835,91.648811 
	C286.334442,95.452850 295.330872,102.313110 302.473419,111.348183 
	C310.837891,121.928909 315.361389,134.334320 315.029327,148.199524 
	C314.721252,161.063461 310.487091,172.525024 302.778259,182.635498 
	C290.622559,198.578308 274.132385,205.923416 254.284103,205.981644 
	C229.625763,206.053986 204.965851,206.148361 180.308838,205.953323 
	C159.327942,205.787369 142.250977,197.043732 130.582886,179.786606 
	C117.349655,160.214630 116.632256,135.208832 130.590424,115.155273 
	C142.274216,98.369301 158.101837,88.095856 179.575775,88.981972 
	C183.068924,89.126114 186.572418,89.019882 190.703674,89.365646 
	C193.832092,91.947365 194.847839,89.805893 196.423599,88.256561 
	C199.397339,85.332680 202.708313,82.754120 205.838699,79.986328 
	C207.601578,78.427620 209.283798,76.777687 211.002350,75.168854 
	C211.002365,75.168861 211.434280,75.022537 212.019119,74.872299 
	C216.673157,70.491188 215.912338,63.007938 210.536377,58.998924 
	C202.359146,59.002193 194.644653,58.841400 186.947601,59.136349 
	C185.264862,59.200832 183.644440,60.891319 181.995316,61.832970 
	C167.256378,62.652557 154.048767,67.972084 141.760239,75.781013 
	C120.477386,89.305527 109.077408,109.331612 103.987595,133.515442 
	C100.833694,148.500916 103.750580,162.914917 108.588554,176.892273 
	C112.973373,189.560394 120.249977,200.716019 130.318878,209.789978 
	C142.316528,220.602097 155.944290,228.434402 172.093353,230.904602 
	C179.871231,232.094345 187.787933,232.460907 195.658859,232.876877 
	C197.006042,232.948074 198.978317,231.733368 199.746353,230.528900 
	C205.188049,221.995193 213.352661,218.166946 222.931412,218.160614 
	C233.105377,218.153885 241.261948,223.124176 246.292725,232.018707 
	C249.165604,237.098038 248.230453,243.442856 244.166702,248.376770 
	C233.911453,260.827942 218.956009,261.595093 208.913132,255.290848 
	C205.633469,253.232101 202.367523,250.484787 200.363708,247.263397 
	C198.646896,244.503418 197.041122,243.762970 194.183380,243.976547 
	C171.289780,245.687485 150.797913,238.866592 132.184998,225.983994 
	C120.807732,218.109436 111.842049,207.795746 105.102928,195.791794 
	C101.902870,190.091705 98.256569,186.502975 91.592468,184.802658 
	C77.742218,181.268814 68.764496,172.004120 64.668747,158.216019 
	C64.255333,156.824280 64.203949,155.324997 64.233711,153.207077 
	C64.986992,148.360245 65.491127,144.181946 66.136673,139.660614 
	C66.907715,135.549652 67.537361,131.781738 68.167000,128.013824 
	C74.846062,117.093315 84.384636,110.381462 97.030495,107.949097 
	C98.759262,107.616577 100.591942,106.061714 101.687859,104.567650 
	C103.986549,101.433838 105.826897,97.963821 108.345169,94.259026 
	C112.209053,89.552650 115.583214,85.219093 118.957375,80.885544 
	C132.659561,65.611259 149.553055,55.691120 169.735214,52.173561 
	C179.069580,50.546669 188.703766,50.574955 198.212662,50.043221 
	C202.643539,49.795444 207.099777,50.000870 211.996094,50.000870 
	C211.996094,45.738159 212.139023,41.947033 211.899399,38.180248 
	C211.836517,37.191586 210.707535,36.151840 209.863037,35.352158 
	C206.003616,31.697565 202.436356,28.312933 202.846375,22.005016 
	C203.448532,12.741189 207.272446,9.059514 216.729553,8.805644 
	C220.604141,8.701632 223.661148,8.573236 226.942444,11.244050 
	C235.163803,17.935806 235.219299,28.405386 226.668259,34.743778 
	C225.684921,35.472672 224.875244,36.435829 223.548859,37.738350 
	C219.671890,42.082787 220.149734,47.704044 224.113190,49.956184 
M253.821976,131.711761 
	C251.008087,131.959351 250.090439,133.392975 251.021973,136.785217 
	C252.615509,142.571289 256.183838,145.828079 260.712341,146.046249 
	C264.113800,146.210098 267.057495,145.237793 268.270264,142.109268 
	C269.925781,137.838577 269.817932,133.509171 266.045837,129.554260 
	C263.832123,128.520569 261.643402,126.731232 259.397980,126.657036 
	C256.952637,126.576248 254.161591,127.821274 254.747330,131.752625 
	C254.747330,131.752625 254.486649,131.837234 253.821976,131.711761 
M213.910034,179.997940 
	C217.267166,179.027100 221.816086,182.305649 224.749878,177.014038 
	C233.389648,174.611832 239.170166,169.530289 240.788696,160.187561 
	C225.408386,160.187561 210.353180,160.187561 194.402206,160.187561 
	C195.525131,163.149078 196.472656,165.647964 197.325714,168.975861 
	C198.529099,170.944641 199.276672,173.675140 201.030228,174.724487 
	C204.743607,176.946609 208.981842,178.291626 213.910034,179.997940 
M172.358688,148.370041 
	C178.788147,149.216660 184.141861,145.528442 185.606918,139.243210 
	C186.661163,134.720398 183.141968,129.135437 178.020355,127.203331 
	C172.750092,125.215149 167.194504,127.671242 164.416733,133.217407 
	C161.441620,139.157578 163.482117,143.319855 172.358688,148.370041 
z"/>
<path fill="#EC5915" opacity="1.000000" stroke="none" 
	d="
M332.098022,147.460434 
	C333.110748,148.838974 334.825928,150.663910 334.869171,152.527618 
	C335.127228,163.652847 334.999634,174.787018 335.002899,186.376343 
	C331.544281,187.106674 332.015594,184.591568 332.012665,182.517853 
	C331.996277,170.986847 332.018768,159.455780 332.098022,147.460434 
z"/>
<path fill="#EC5612" opacity="1.000000" stroke="none" 
	d="
M222.998779,60.999214 
	C224.250244,60.345409 225.488953,59.156029 226.755264,59.125862 
	C234.237473,58.947639 241.728348,58.946598 249.210205,59.131985 
	C250.426086,59.162109 251.611557,60.419334 252.908539,61.470928 
	C243.680466,61.891068 234.354950,61.949657 224.372925,61.864708 
	C223.477219,61.480518 223.238007,61.239864 222.998779,60.999214 
z"/>
<path fill="#EC5613" opacity="1.000000" stroke="none" 
	d="
M182.459641,61.903290 
	C183.644440,60.891319 185.264862,59.200832 186.947601,59.136349 
	C194.644653,58.841400 202.359146,59.002193 210.536316,59.353226 
	C211.005035,60.415741 211.004807,61.124310 211.004578,61.832874 
	C201.644379,61.879787 192.284164,61.926701 182.459641,61.903290 
z"/>
<path fill="#ED5E1C" opacity="1.000000" stroke="none" 
	d="
M210.624924,75.100937 
	C209.283798,76.777687 207.601578,78.427620 205.838699,79.986328 
	C202.708313,82.754120 199.397339,85.332680 196.423599,88.256561 
	C194.847839,89.805893 193.832092,91.947365 191.167725,89.434677 
	C192.649582,87.860870 194.695114,86.838455 195.876678,85.194916 
	C199.536179,80.104652 204.042068,76.422867 210.624924,75.100937 
z"/>
<path fill="#ED5E1C" opacity="1.000000" stroke="none" 
	d="
M211.364014,62.083580 
	C211.004807,61.124310 211.005035,60.415741 211.005310,59.352875 
	C215.912338,63.007938 216.673157,70.491188 212.244858,74.840164 
	C211.831650,70.750275 211.777557,66.542282 211.364014,62.083580 
z"/>
<path fill="#EC5A17" opacity="1.000000" stroke="none" 
	d="
M224.066528,49.500206 
	C220.149734,47.704044 219.671890,42.082787 223.472321,38.090691 
	C223.894592,41.678104 223.957230,45.361164 224.066528,49.500206 
z"/>
<path fill="#EC5713" opacity="1.000000" stroke="none" 
	d="
M65.995270,140.003662 
	C65.491127,144.181946 64.986992,148.360245 64.189644,152.794495 
	C63.928089,148.975037 63.959751,144.899628 64.383766,140.412018 
	C65.182495,140.001099 65.588882,140.002380 65.995270,140.003662 
z"/>
<path fill="#EC5A17" opacity="1.000000" stroke="none" 
	d="
M222.682663,61.205673 
	C223.238007,61.239864 223.477219,61.480518 223.911316,61.885010 
	C224.061020,65.398941 224.015839,68.749031 223.901306,72.552124 
	C220.434143,70.651436 219.916321,66.554893 222.682663,61.205673 
z"/>
<path fill="#ED5C1A" opacity="1.000000" stroke="none" 
	d="
M118.649185,81.027649 
	C115.583214,85.219093 112.209053,89.552650 108.501068,93.944000 
	C111.558487,89.724449 114.949738,85.447098 118.649185,81.027649 
z"/>
<path fill="#EC5C19" opacity="1.000000" stroke="none" 
	d="
M66.136665,139.660614 
	C65.588882,140.002380 65.182495,140.001099 64.471283,139.999084 
	C65.388855,136.220734 66.611259,132.443115 68.000336,128.339661 
	C67.537361,131.781738 66.907715,135.549652 66.136665,139.660614 
z"/>
<path fill="#ED5B18" opacity="1.000000" stroke="none" 
	d="
M345.168823,109.825714 
	C341.601166,112.289391 338.201752,111.960365 335.152954,108.237358 
	C338.347107,108.434563 341.652679,108.981735 345.168823,109.825714 
z"/>
<path fill="#000000" opacity="1.000000" stroke="none" 
	d="
M197.420166,168.146866 
	C196.472656,165.647964 195.525131,163.149078 194.402206,160.187561 
	C210.353180,160.187561 225.408386,160.187561 240.788696,160.187561 
	C239.170166,169.530289 233.389648,174.611832 223.923080,177.020447 
	C219.729767,177.073654 216.363235,177.120483 212.602753,177.097778 
	C206.123627,175.992035 200.767975,173.741089 197.420166,168.146866 
z"/>
<path fill="#000000" opacity="1.000000" stroke="none" 
	d="
M265.953491,130.110977 
	C269.817932,133.509171 269.925781,137.838577 268.270264,142.109268 
	C267.057495,145.237793 264.113800,146.210098 260.712341,146.046249 
	C256.183838,145.828079 252.615509,142.571289 251.350571,136.275589 
	C252.614990,134.456375 253.550812,133.146805 254.486649,131.837234 
	C254.486649,131.837234 254.747330,131.752625 255.068649,131.403229 
	C258.646667,127.776253 262.261292,128.509171 265.953491,130.110977 
z"/>
<path fill="#ED5C1A" opacity="1.000000" stroke="none" 
	d="
M172.019302,148.201569 
	C163.482117,143.319855 161.441620,139.157578 164.416733,133.217407 
	C167.194504,127.671242 172.750092,125.215149 178.020355,127.203331 
	C183.141968,129.135437 186.661163,134.720398 185.606918,139.243210 
	C184.141861,145.528442 178.788147,149.216660 172.019302,148.201569 
M177.743103,145.721802 
	C178.815628,144.987488 180.112488,144.442413 180.920242,143.484772 
	C183.787720,140.085175 183.878113,136.199020 181.724457,132.534882 
	C179.468979,128.697479 175.466309,128.269470 171.683395,129.271637 
	C167.842087,130.289246 165.924805,133.244034 165.972198,137.421173 
	C166.043259,143.686111 169.011810,146.060654 177.743103,145.721802 
z"/>
<path fill="#ED5C1A" opacity="1.000000" stroke="none" 
	d="
M197.372940,168.561371 
	C200.767975,173.741089 206.123627,175.992035 212.603516,177.451462 
	C213.000458,178.581894 213.002655,179.289108 213.004852,179.996338 
	C208.981842,178.291626 204.743607,176.946609 201.030228,174.724487 
	C199.276672,173.675140 198.529099,170.944641 197.372940,168.561371 
z"/>
<path fill="#EC5714" opacity="1.000000" stroke="none" 
	d="
M213.457443,179.997131 
	C213.002655,179.289108 213.000458,178.581894 212.997498,177.520996 
	C216.363235,177.120483 219.729767,177.073654 223.550278,177.096863 
	C221.816086,182.305649 217.267166,179.027100 213.457443,179.997131 
z"/>
<path fill="#ED5D1B" opacity="1.000000" stroke="none" 
	d="
M265.999664,129.832611 
	C262.261292,128.509171 258.646667,127.776253 255.112518,131.273407 
	C254.161591,127.821274 256.952637,126.576248 259.397980,126.657036 
	C261.643402,126.731232 263.832123,128.520569 265.999664,129.832611 
z"/>
<path fill="#ED5D1B" opacity="1.000000" stroke="none" 
	d="
M254.154312,131.774506 
	C253.550812,133.146805 252.614990,134.456375 251.396683,135.903442 
	C250.090439,133.392975 251.008087,131.959351 254.154312,131.774506 
z"/>
<path fill="#000000" opacity="1.000000" stroke="none" 
	d="
M177.347229,145.836716 
	C169.011810,146.060654 166.043259,143.686111 165.972198,137.421173 
	C165.924805,133.244034 167.842087,130.289246 171.683395,129.271637 
	C175.466309,128.269470 179.468979,128.697479 181.724457,132.534882 
	C183.878113,136.199020 183.787720,140.085175 180.920242,143.484772 
	C180.112488,144.442413 178.815628,144.987488 177.347229,145.836716 
z"/>
</svg>