<svg width="66" height="66" viewBox="0 0 66 66" fill="none" xmlns="http://www.w3.org/2000/svg">
    <path d="M33 3C17.0883 3 3.99997 16.0883 3.99997 32V44C3.99997 46.2091 5.79086 48 8 48H13C14.6569 48 16 46.6569 16 45V33C16 31.3431 14.6569 30 13 30H8.33333V32C8.33333 18.86 19.86 7.33333 33 7.33333C46.14 7.33333 57.6667 18.86 57.6667 32V30H53C51.3431 30 50 31.3431 50 33V45C50 46.6569 51.3431 48 53 48H58C60.2091 48 62 46.2091 62 44V32C62 16.0883 48.9117 3 33 3Z" fill="white" stroke="white" stroke-width="6"/>
</svg>
